<mxfile host="app.diagrams.net" modified="2021-10-17T06:46:42.558Z" agent="5.0 (X11; Linux x86_64) AppleWebKit/537.36 (KHTML, like Gecko) Chrome/88.0.4324.182 Safari/537.36" etag="0kG68iR0PyQyIJFn8zGM" version="15.5.4" type="github">
  <diagram id="R2lEEEUBdFMjLlhIrx00" name="Page-1">
    <mxGraphModel dx="5172" dy="2948" grid="1" gridSize="10" guides="1" tooltips="1" connect="1" arrows="1" fold="1" page="1" pageScale="1" pageWidth="850" pageHeight="1100" math="0" shadow="0" extFonts="Permanent Marker^https://fonts.googleapis.com/css?family=Permanent+Marker">
      <root>
        <mxCell id="0" />
        <mxCell id="1" parent="0" />
        <mxCell id="WRKdr_nPjCtuhQN3H7IV-9" style="edgeStyle=orthogonalEdgeStyle;rounded=0;orthogonalLoop=1;jettySize=auto;html=1;entryX=1;entryY=0.5;entryDx=0;entryDy=0;" edge="1" parent="1" source="WRKdr_nPjCtuhQN3H7IV-1" target="WRKdr_nPjCtuhQN3H7IV-6">
          <mxGeometry relative="1" as="geometry">
            <Array as="points">
              <mxPoint x="60" y="105" />
            </Array>
          </mxGeometry>
        </mxCell>
        <mxCell id="WRKdr_nPjCtuhQN3H7IV-10" style="edgeStyle=orthogonalEdgeStyle;rounded=0;orthogonalLoop=1;jettySize=auto;html=1;entryX=1;entryY=0.5;entryDx=0;entryDy=0;" edge="1" parent="1" source="WRKdr_nPjCtuhQN3H7IV-1" target="WRKdr_nPjCtuhQN3H7IV-5">
          <mxGeometry relative="1" as="geometry">
            <Array as="points">
              <mxPoint x="60" y="365" />
            </Array>
          </mxGeometry>
        </mxCell>
        <mxCell id="WRKdr_nPjCtuhQN3H7IV-18" style="edgeStyle=orthogonalEdgeStyle;rounded=0;orthogonalLoop=1;jettySize=auto;html=1;exitX=0.75;exitY=0;exitDx=0;exitDy=0;entryX=0;entryY=0.5;entryDx=0;entryDy=0;" edge="1" parent="1" source="WRKdr_nPjCtuhQN3H7IV-1" target="WRKdr_nPjCtuhQN3H7IV-14">
          <mxGeometry relative="1" as="geometry" />
        </mxCell>
        <mxCell id="WRKdr_nPjCtuhQN3H7IV-19" style="edgeStyle=orthogonalEdgeStyle;rounded=0;orthogonalLoop=1;jettySize=auto;html=1;exitX=0.75;exitY=1;exitDx=0;exitDy=0;entryX=0;entryY=0.5;entryDx=0;entryDy=0;" edge="1" parent="1" source="WRKdr_nPjCtuhQN3H7IV-1" target="WRKdr_nPjCtuhQN3H7IV-16">
          <mxGeometry relative="1" as="geometry" />
        </mxCell>
        <mxCell id="WRKdr_nPjCtuhQN3H7IV-1" value="pasien" style="rounded=0;whiteSpace=wrap;html=1;" vertex="1" parent="1">
          <mxGeometry x="40" y="200" width="120" height="60" as="geometry" />
        </mxCell>
        <mxCell id="WRKdr_nPjCtuhQN3H7IV-5" value="poliklinik_tujuan" style="ellipse;whiteSpace=wrap;html=1;" vertex="1" parent="1">
          <mxGeometry x="-180" y="340" width="120" height="50" as="geometry" />
        </mxCell>
        <mxCell id="WRKdr_nPjCtuhQN3H7IV-29" style="edgeStyle=orthogonalEdgeStyle;rounded=0;orthogonalLoop=1;jettySize=auto;html=1;exitX=0;exitY=0.5;exitDx=0;exitDy=0;entryX=1;entryY=0.5;entryDx=0;entryDy=0;" edge="1" parent="1" source="WRKdr_nPjCtuhQN3H7IV-6" target="WRKdr_nPjCtuhQN3H7IV-27">
          <mxGeometry relative="1" as="geometry" />
        </mxCell>
        <mxCell id="WRKdr_nPjCtuhQN3H7IV-6" value="&lt;u&gt;id&lt;/u&gt;" style="ellipse;whiteSpace=wrap;html=1;" vertex="1" parent="1">
          <mxGeometry x="-180" y="80" width="120" height="50" as="geometry" />
        </mxCell>
        <mxCell id="WRKdr_nPjCtuhQN3H7IV-11" style="edgeStyle=orthogonalEdgeStyle;rounded=0;orthogonalLoop=1;jettySize=auto;html=1;exitX=1;exitY=0.5;exitDx=0;exitDy=0;entryX=0;entryY=0.25;entryDx=0;entryDy=0;" edge="1" parent="1" source="WRKdr_nPjCtuhQN3H7IV-7" target="WRKdr_nPjCtuhQN3H7IV-1">
          <mxGeometry relative="1" as="geometry">
            <mxPoint x="30" y="220" as="targetPoint" />
            <Array as="points">
              <mxPoint x="-60" y="210" />
              <mxPoint x="20" y="210" />
              <mxPoint x="20" y="215" />
            </Array>
          </mxGeometry>
        </mxCell>
        <mxCell id="WRKdr_nPjCtuhQN3H7IV-7" value="nama" style="ellipse;whiteSpace=wrap;html=1;" vertex="1" parent="1">
          <mxGeometry x="-180" y="165" width="120" height="50" as="geometry" />
        </mxCell>
        <mxCell id="WRKdr_nPjCtuhQN3H7IV-12" style="edgeStyle=orthogonalEdgeStyle;rounded=0;orthogonalLoop=1;jettySize=auto;html=1;exitX=1;exitY=0.5;exitDx=0;exitDy=0;entryX=0;entryY=0.75;entryDx=0;entryDy=0;" edge="1" parent="1" source="WRKdr_nPjCtuhQN3H7IV-8" target="WRKdr_nPjCtuhQN3H7IV-1">
          <mxGeometry relative="1" as="geometry">
            <mxPoint x="10" y="240.0000000000001" as="targetPoint" />
            <Array as="points">
              <mxPoint x="-60" y="250" />
              <mxPoint x="20" y="250" />
            </Array>
          </mxGeometry>
        </mxCell>
        <mxCell id="WRKdr_nPjCtuhQN3H7IV-8" value="nomor" style="ellipse;whiteSpace=wrap;html=1;" vertex="1" parent="1">
          <mxGeometry x="-180" y="250" width="120" height="50" as="geometry" />
        </mxCell>
        <mxCell id="WRKdr_nPjCtuhQN3H7IV-20" style="edgeStyle=orthogonalEdgeStyle;rounded=0;orthogonalLoop=1;jettySize=auto;html=1;entryX=1;entryY=0.25;entryDx=0;entryDy=0;" edge="1" parent="1" source="WRKdr_nPjCtuhQN3H7IV-13" target="WRKdr_nPjCtuhQN3H7IV-1">
          <mxGeometry relative="1" as="geometry" />
        </mxCell>
        <mxCell id="WRKdr_nPjCtuhQN3H7IV-13" value="jenis_kelamin" style="ellipse;whiteSpace=wrap;html=1;" vertex="1" parent="1">
          <mxGeometry x="230" y="165" width="120" height="50" as="geometry" />
        </mxCell>
        <mxCell id="WRKdr_nPjCtuhQN3H7IV-14" value="alamat" style="ellipse;whiteSpace=wrap;html=1;" vertex="1" parent="1">
          <mxGeometry x="230" y="80" width="120" height="50" as="geometry" />
        </mxCell>
        <mxCell id="WRKdr_nPjCtuhQN3H7IV-21" style="edgeStyle=orthogonalEdgeStyle;rounded=0;orthogonalLoop=1;jettySize=auto;html=1;exitX=0;exitY=0.5;exitDx=0;exitDy=0;entryX=1;entryY=0.75;entryDx=0;entryDy=0;" edge="1" parent="1" source="WRKdr_nPjCtuhQN3H7IV-15" target="WRKdr_nPjCtuhQN3H7IV-1">
          <mxGeometry relative="1" as="geometry" />
        </mxCell>
        <mxCell id="WRKdr_nPjCtuhQN3H7IV-15" value="tgl_lahir" style="ellipse;whiteSpace=wrap;html=1;" vertex="1" parent="1">
          <mxGeometry x="230" y="250" width="120" height="50" as="geometry" />
        </mxCell>
        <mxCell id="WRKdr_nPjCtuhQN3H7IV-16" value="" style="ellipse;whiteSpace=wrap;html=1;" vertex="1" parent="1">
          <mxGeometry x="230" y="340" width="120" height="50" as="geometry" />
        </mxCell>
        <mxCell id="WRKdr_nPjCtuhQN3H7IV-22" value="pendaftaran" style="rounded=0;whiteSpace=wrap;html=1;" vertex="1" parent="1">
          <mxGeometry x="-820" y="200" width="120" height="60" as="geometry" />
        </mxCell>
        <mxCell id="WRKdr_nPjCtuhQN3H7IV-30" style="edgeStyle=orthogonalEdgeStyle;rounded=0;orthogonalLoop=1;jettySize=auto;html=1;exitX=0;exitY=0.5;exitDx=0;exitDy=0;entryX=0.75;entryY=0;entryDx=0;entryDy=0;" edge="1" parent="1" source="WRKdr_nPjCtuhQN3H7IV-23" target="WRKdr_nPjCtuhQN3H7IV-22">
          <mxGeometry relative="1" as="geometry" />
        </mxCell>
        <mxCell id="WRKdr_nPjCtuhQN3H7IV-23" value="&lt;u&gt;pasien.id&lt;/u&gt;" style="ellipse;whiteSpace=wrap;html=1;" vertex="1" parent="1">
          <mxGeometry x="-610" y="80" width="120" height="50" as="geometry" />
        </mxCell>
        <mxCell id="WRKdr_nPjCtuhQN3H7IV-33" style="edgeStyle=orthogonalEdgeStyle;rounded=0;orthogonalLoop=1;jettySize=auto;html=1;exitX=0;exitY=0.5;exitDx=0;exitDy=0;entryX=1;entryY=0.25;entryDx=0;entryDy=0;" edge="1" parent="1" source="WRKdr_nPjCtuhQN3H7IV-24" target="WRKdr_nPjCtuhQN3H7IV-22">
          <mxGeometry relative="1" as="geometry" />
        </mxCell>
        <mxCell id="WRKdr_nPjCtuhQN3H7IV-24" value="pasien.nama" style="ellipse;whiteSpace=wrap;html=1;" vertex="1" parent="1">
          <mxGeometry x="-610" y="165" width="120" height="50" as="geometry" />
        </mxCell>
        <mxCell id="WRKdr_nPjCtuhQN3H7IV-32" style="edgeStyle=orthogonalEdgeStyle;rounded=0;orthogonalLoop=1;jettySize=auto;html=1;exitX=0;exitY=0.5;exitDx=0;exitDy=0;entryX=1;entryY=0.75;entryDx=0;entryDy=0;" edge="1" parent="1" source="WRKdr_nPjCtuhQN3H7IV-25" target="WRKdr_nPjCtuhQN3H7IV-22">
          <mxGeometry relative="1" as="geometry" />
        </mxCell>
        <mxCell id="WRKdr_nPjCtuhQN3H7IV-25" value="nomor_poliklinik" style="ellipse;whiteSpace=wrap;html=1;" vertex="1" parent="1">
          <mxGeometry x="-610" y="250" width="120" height="50" as="geometry" />
        </mxCell>
        <mxCell id="WRKdr_nPjCtuhQN3H7IV-31" style="edgeStyle=orthogonalEdgeStyle;rounded=0;orthogonalLoop=1;jettySize=auto;html=1;exitX=0;exitY=0.5;exitDx=0;exitDy=0;entryX=0.75;entryY=1;entryDx=0;entryDy=0;" edge="1" parent="1" source="WRKdr_nPjCtuhQN3H7IV-26" target="WRKdr_nPjCtuhQN3H7IV-22">
          <mxGeometry relative="1" as="geometry" />
        </mxCell>
        <mxCell id="WRKdr_nPjCtuhQN3H7IV-26" value="keluhan_penyakit" style="ellipse;whiteSpace=wrap;html=1;" vertex="1" parent="1">
          <mxGeometry x="-610" y="340" width="120" height="50" as="geometry" />
        </mxCell>
        <mxCell id="WRKdr_nPjCtuhQN3H7IV-28" style="edgeStyle=orthogonalEdgeStyle;rounded=0;orthogonalLoop=1;jettySize=auto;html=1;entryX=1;entryY=0.5;entryDx=0;entryDy=0;" edge="1" parent="1" source="WRKdr_nPjCtuhQN3H7IV-27" target="WRKdr_nPjCtuhQN3H7IV-23">
          <mxGeometry relative="1" as="geometry">
            <mxPoint x="-430" y="105" as="targetPoint" />
          </mxGeometry>
        </mxCell>
        <mxCell id="WRKdr_nPjCtuhQN3H7IV-27" value="relation" style="rhombus;whiteSpace=wrap;html=1;" vertex="1" parent="1">
          <mxGeometry x="-390" y="77.5" width="140" height="55" as="geometry" />
        </mxCell>
        <mxCell id="WRKdr_nPjCtuhQN3H7IV-37" style="edgeStyle=orthogonalEdgeStyle;rounded=0;orthogonalLoop=1;jettySize=auto;html=1;exitX=1;exitY=0.5;exitDx=0;exitDy=0;entryX=0.25;entryY=0;entryDx=0;entryDy=0;" edge="1" parent="1" source="WRKdr_nPjCtuhQN3H7IV-34" target="WRKdr_nPjCtuhQN3H7IV-22">
          <mxGeometry relative="1" as="geometry" />
        </mxCell>
        <mxCell id="WRKdr_nPjCtuhQN3H7IV-34" value="&lt;u&gt;id&lt;/u&gt;" style="ellipse;whiteSpace=wrap;html=1;" vertex="1" parent="1">
          <mxGeometry x="-1000" y="80" width="120" height="50" as="geometry" />
        </mxCell>
        <mxCell id="WRKdr_nPjCtuhQN3H7IV-38" value="politeknik" style="rounded=0;whiteSpace=wrap;html=1;" vertex="1" parent="1">
          <mxGeometry x="-820" y="540" width="120" height="60" as="geometry" />
        </mxCell>
        <mxCell id="WRKdr_nPjCtuhQN3H7IV-40" style="edgeStyle=orthogonalEdgeStyle;rounded=0;orthogonalLoop=1;jettySize=auto;html=1;exitX=1;exitY=0.5;exitDx=0;exitDy=0;entryX=0;entryY=0.25;entryDx=0;entryDy=0;" edge="1" parent="1" source="WRKdr_nPjCtuhQN3H7IV-39" target="WRKdr_nPjCtuhQN3H7IV-22">
          <mxGeometry relative="1" as="geometry" />
        </mxCell>
        <mxCell id="WRKdr_nPjCtuhQN3H7IV-53" style="edgeStyle=orthogonalEdgeStyle;rounded=0;orthogonalLoop=1;jettySize=auto;html=1;exitX=0;exitY=0.5;exitDx=0;exitDy=0;entryX=1;entryY=0.5;entryDx=0;entryDy=0;" edge="1" parent="1" source="WRKdr_nPjCtuhQN3H7IV-34" target="WRKdr_nPjCtuhQN3H7IV-52">
          <mxGeometry relative="1" as="geometry" />
        </mxCell>
        <mxCell id="WRKdr_nPjCtuhQN3H7IV-39" value="&lt;u&gt;nomor_daftar&lt;/u&gt;" style="ellipse;whiteSpace=wrap;html=1;" vertex="1" parent="1">
          <mxGeometry x="-1000" y="165" width="120" height="50" as="geometry" />
        </mxCell>
        <mxCell id="WRKdr_nPjCtuhQN3H7IV-49" style="edgeStyle=orthogonalEdgeStyle;rounded=0;orthogonalLoop=1;jettySize=auto;html=1;entryX=0.168;entryY=-0.067;entryDx=0;entryDy=0;entryPerimeter=0;" edge="1" parent="1" source="WRKdr_nPjCtuhQN3H7IV-41" target="WRKdr_nPjCtuhQN3H7IV-38">
          <mxGeometry relative="1" as="geometry" />
        </mxCell>
        <mxCell id="WRKdr_nPjCtuhQN3H7IV-41" value="&lt;u&gt;pendaftar.id&lt;/u&gt;" style="ellipse;whiteSpace=wrap;html=1;" vertex="1" parent="1">
          <mxGeometry x="-1000" y="440" width="120" height="50" as="geometry" />
        </mxCell>
        <mxCell id="WRKdr_nPjCtuhQN3H7IV-48" style="edgeStyle=orthogonalEdgeStyle;rounded=0;orthogonalLoop=1;jettySize=auto;html=1;exitX=1;exitY=0.5;exitDx=0;exitDy=0;entryX=0;entryY=0.25;entryDx=0;entryDy=0;" edge="1" parent="1" source="WRKdr_nPjCtuhQN3H7IV-42" target="WRKdr_nPjCtuhQN3H7IV-38">
          <mxGeometry relative="1" as="geometry" />
        </mxCell>
        <mxCell id="WRKdr_nPjCtuhQN3H7IV-42" value="tanggal_kunjungan" style="ellipse;whiteSpace=wrap;html=1;" vertex="1" parent="1">
          <mxGeometry x="-1000" y="510" width="120" height="50" as="geometry" />
        </mxCell>
        <mxCell id="WRKdr_nPjCtuhQN3H7IV-55" style="edgeStyle=orthogonalEdgeStyle;rounded=0;orthogonalLoop=1;jettySize=auto;html=1;exitX=0;exitY=0.5;exitDx=0;exitDy=0;entryX=0.854;entryY=-0.008;entryDx=0;entryDy=0;entryPerimeter=0;" edge="1" parent="1" source="WRKdr_nPjCtuhQN3H7IV-43" target="WRKdr_nPjCtuhQN3H7IV-38">
          <mxGeometry relative="1" as="geometry" />
        </mxCell>
        <mxCell id="WRKdr_nPjCtuhQN3H7IV-43" value="pasien.nama" style="ellipse;whiteSpace=wrap;html=1;" vertex="1" parent="1">
          <mxGeometry x="-610" y="440" width="120" height="50" as="geometry" />
        </mxCell>
        <mxCell id="WRKdr_nPjCtuhQN3H7IV-51" style="edgeStyle=orthogonalEdgeStyle;rounded=0;orthogonalLoop=1;jettySize=auto;html=1;exitX=1;exitY=0.5;exitDx=0;exitDy=0;entryX=0;entryY=0.75;entryDx=0;entryDy=0;" edge="1" parent="1" source="WRKdr_nPjCtuhQN3H7IV-44" target="WRKdr_nPjCtuhQN3H7IV-38">
          <mxGeometry relative="1" as="geometry" />
        </mxCell>
        <mxCell id="WRKdr_nPjCtuhQN3H7IV-44" value="jenis_kunjunag" style="ellipse;whiteSpace=wrap;html=1;" vertex="1" parent="1">
          <mxGeometry x="-1000" y="580" width="120" height="50" as="geometry" />
        </mxCell>
        <mxCell id="WRKdr_nPjCtuhQN3H7IV-50" style="edgeStyle=orthogonalEdgeStyle;rounded=0;orthogonalLoop=1;jettySize=auto;html=1;exitX=1;exitY=0.5;exitDx=0;exitDy=0;entryX=0.167;entryY=1;entryDx=0;entryDy=0;entryPerimeter=0;" edge="1" parent="1" source="WRKdr_nPjCtuhQN3H7IV-45" target="WRKdr_nPjCtuhQN3H7IV-38">
          <mxGeometry relative="1" as="geometry" />
        </mxCell>
        <mxCell id="WRKdr_nPjCtuhQN3H7IV-45" value="tipe_tinfakan" style="ellipse;whiteSpace=wrap;html=1;" vertex="1" parent="1">
          <mxGeometry x="-1000" y="660" width="120" height="50" as="geometry" />
        </mxCell>
        <mxCell id="WRKdr_nPjCtuhQN3H7IV-54" style="edgeStyle=orthogonalEdgeStyle;rounded=0;orthogonalLoop=1;jettySize=auto;html=1;exitX=0;exitY=0.5;exitDx=0;exitDy=0;entryX=0.5;entryY=0;entryDx=0;entryDy=0;" edge="1" parent="1" source="WRKdr_nPjCtuhQN3H7IV-52" target="WRKdr_nPjCtuhQN3H7IV-41">
          <mxGeometry relative="1" as="geometry" />
        </mxCell>
        <mxCell id="WRKdr_nPjCtuhQN3H7IV-52" value="relation" style="rhombus;whiteSpace=wrap;html=1;rotation=-90;" vertex="1" parent="1">
          <mxGeometry x="-1100" y="300" width="120" height="55" as="geometry" />
        </mxCell>
        <mxCell id="WRKdr_nPjCtuhQN3H7IV-57" style="edgeStyle=orthogonalEdgeStyle;rounded=0;orthogonalLoop=1;jettySize=auto;html=1;exitX=0;exitY=0.5;exitDx=0;exitDy=0;entryX=1;entryY=0.25;entryDx=0;entryDy=0;" edge="1" parent="1" source="WRKdr_nPjCtuhQN3H7IV-56" target="WRKdr_nPjCtuhQN3H7IV-38">
          <mxGeometry relative="1" as="geometry" />
        </mxCell>
        <mxCell id="WRKdr_nPjCtuhQN3H7IV-56" value="&lt;u&gt;id&lt;/u&gt;" style="ellipse;whiteSpace=wrap;html=1;" vertex="1" parent="1">
          <mxGeometry x="-610" y="510" width="120" height="50" as="geometry" />
        </mxCell>
        <mxCell id="WRKdr_nPjCtuhQN3H7IV-60" style="edgeStyle=orthogonalEdgeStyle;rounded=0;orthogonalLoop=1;jettySize=auto;html=1;exitX=0;exitY=0.5;exitDx=0;exitDy=0;entryX=1;entryY=0.75;entryDx=0;entryDy=0;" edge="1" parent="1" source="WRKdr_nPjCtuhQN3H7IV-59" target="WRKdr_nPjCtuhQN3H7IV-38">
          <mxGeometry relative="1" as="geometry" />
        </mxCell>
        <mxCell id="WRKdr_nPjCtuhQN3H7IV-59" value="pendaftar.nomor_daftar" style="ellipse;whiteSpace=wrap;html=1;" vertex="1" parent="1">
          <mxGeometry x="-610" y="580" width="120" height="50" as="geometry" />
        </mxCell>
        <mxCell id="WRKdr_nPjCtuhQN3H7IV-61" value="riwayat" style="rounded=0;whiteSpace=wrap;html=1;" vertex="1" parent="1">
          <mxGeometry x="-360" y="640" width="120" height="60" as="geometry" />
        </mxCell>
        <mxCell id="WRKdr_nPjCtuhQN3H7IV-68" style="edgeStyle=orthogonalEdgeStyle;rounded=0;orthogonalLoop=1;jettySize=auto;html=1;exitX=0;exitY=0.5;exitDx=0;exitDy=0;entryX=0.75;entryY=0;entryDx=0;entryDy=0;" edge="1" parent="1" source="WRKdr_nPjCtuhQN3H7IV-62" target="WRKdr_nPjCtuhQN3H7IV-61">
          <mxGeometry relative="1" as="geometry" />
        </mxCell>
        <mxCell id="WRKdr_nPjCtuhQN3H7IV-62" value="pasien.id" style="ellipse;whiteSpace=wrap;html=1;" vertex="1" parent="1">
          <mxGeometry x="-170" y="530" width="120" height="50" as="geometry" />
        </mxCell>
        <mxCell id="WRKdr_nPjCtuhQN3H7IV-63" value="pasien.nama" style="ellipse;whiteSpace=wrap;html=1;" vertex="1" parent="1">
          <mxGeometry x="-170" y="430" width="120" height="50" as="geometry" />
        </mxCell>
        <mxCell id="WRKdr_nPjCtuhQN3H7IV-71" style="edgeStyle=orthogonalEdgeStyle;rounded=0;orthogonalLoop=1;jettySize=auto;html=1;exitX=0;exitY=0.5;exitDx=0;exitDy=0;entryX=1;entryY=0.25;entryDx=0;entryDy=0;" edge="1" parent="1" source="WRKdr_nPjCtuhQN3H7IV-64" target="WRKdr_nPjCtuhQN3H7IV-61">
          <mxGeometry relative="1" as="geometry" />
        </mxCell>
        <mxCell id="WRKdr_nPjCtuhQN3H7IV-64" value="pendaftar.id" style="ellipse;whiteSpace=wrap;html=1;" vertex="1" parent="1">
          <mxGeometry x="-170" y="610" width="120" height="50" as="geometry" />
        </mxCell>
        <mxCell id="WRKdr_nPjCtuhQN3H7IV-70" style="edgeStyle=orthogonalEdgeStyle;rounded=0;orthogonalLoop=1;jettySize=auto;html=1;exitX=0;exitY=0.5;exitDx=0;exitDy=0;entryX=1;entryY=0.75;entryDx=0;entryDy=0;" edge="1" parent="1" source="WRKdr_nPjCtuhQN3H7IV-65" target="WRKdr_nPjCtuhQN3H7IV-61">
          <mxGeometry relative="1" as="geometry" />
        </mxCell>
        <mxCell id="WRKdr_nPjCtuhQN3H7IV-65" value="politeknik.id" style="ellipse;whiteSpace=wrap;html=1;" vertex="1" parent="1">
          <mxGeometry x="-170" y="680" width="120" height="50" as="geometry" />
        </mxCell>
        <mxCell id="WRKdr_nPjCtuhQN3H7IV-69" style="edgeStyle=orthogonalEdgeStyle;rounded=0;orthogonalLoop=1;jettySize=auto;html=1;exitX=0;exitY=0.5;exitDx=0;exitDy=0;entryX=0.75;entryY=1;entryDx=0;entryDy=0;" edge="1" parent="1" source="WRKdr_nPjCtuhQN3H7IV-66" target="WRKdr_nPjCtuhQN3H7IV-61">
          <mxGeometry relative="1" as="geometry" />
        </mxCell>
        <mxCell id="WRKdr_nPjCtuhQN3H7IV-66" value="pasien.nama" style="ellipse;whiteSpace=wrap;html=1;" vertex="1" parent="1">
          <mxGeometry x="-170" y="760" width="120" height="50" as="geometry" />
        </mxCell>
        <mxCell id="WRKdr_nPjCtuhQN3H7IV-72" style="edgeStyle=orthogonalEdgeStyle;rounded=0;orthogonalLoop=1;jettySize=auto;html=1;exitX=0.5;exitY=0;exitDx=0;exitDy=0;entryX=0;entryY=0.75;entryDx=0;entryDy=0;" edge="1" parent="1" source="WRKdr_nPjCtuhQN3H7IV-67" target="WRKdr_nPjCtuhQN3H7IV-61">
          <mxGeometry relative="1" as="geometry" />
        </mxCell>
        <mxCell id="WRKdr_nPjCtuhQN3H7IV-67" value="diagnosis" style="ellipse;whiteSpace=wrap;html=1;" vertex="1" parent="1">
          <mxGeometry x="-390" y="820" width="120" height="50" as="geometry" />
        </mxCell>
        <mxCell id="WRKdr_nPjCtuhQN3H7IV-77" style="edgeStyle=orthogonalEdgeStyle;rounded=0;orthogonalLoop=1;jettySize=auto;html=1;exitX=1;exitY=0.5;exitDx=0;exitDy=0;entryX=0;entryY=0.25;entryDx=0;entryDy=0;" edge="1" parent="1" source="WRKdr_nPjCtuhQN3H7IV-73" target="WRKdr_nPjCtuhQN3H7IV-61">
          <mxGeometry relative="1" as="geometry">
            <Array as="points">
              <mxPoint x="-410" y="785" />
              <mxPoint x="-410" y="655" />
            </Array>
          </mxGeometry>
        </mxCell>
        <mxCell id="WRKdr_nPjCtuhQN3H7IV-73" value="&lt;u&gt;politeknik.id&lt;/u&gt;" style="ellipse;whiteSpace=wrap;html=1;" vertex="1" parent="1">
          <mxGeometry x="-610" y="760" width="120" height="50" as="geometry" />
        </mxCell>
        <mxCell id="WRKdr_nPjCtuhQN3H7IV-75" style="edgeStyle=orthogonalEdgeStyle;rounded=0;orthogonalLoop=1;jettySize=auto;html=1;entryX=0.997;entryY=0.332;entryDx=0;entryDy=0;entryPerimeter=0;exitX=0.5;exitY=0;exitDx=0;exitDy=0;" edge="1" parent="1" source="WRKdr_nPjCtuhQN3H7IV-74" target="WRKdr_nPjCtuhQN3H7IV-56">
          <mxGeometry relative="1" as="geometry">
            <Array as="points">
              <mxPoint x="-490" y="630" />
              <mxPoint x="-440" y="630" />
              <mxPoint x="-440" y="527" />
            </Array>
          </mxGeometry>
        </mxCell>
        <mxCell id="WRKdr_nPjCtuhQN3H7IV-76" style="edgeStyle=orthogonalEdgeStyle;rounded=0;orthogonalLoop=1;jettySize=auto;html=1;entryX=0.5;entryY=0;entryDx=0;entryDy=0;" edge="1" parent="1" source="WRKdr_nPjCtuhQN3H7IV-74" target="WRKdr_nPjCtuhQN3H7IV-73">
          <mxGeometry relative="1" as="geometry" />
        </mxCell>
        <mxCell id="WRKdr_nPjCtuhQN3H7IV-74" value="relation" style="rhombus;whiteSpace=wrap;html=1;" vertex="1" parent="1">
          <mxGeometry x="-560" y="670" width="140" height="55" as="geometry" />
        </mxCell>
        <mxCell id="WRKdr_nPjCtuhQN3H7IV-80" value="&lt;h1&gt;tgl_riwayat&lt;/h1&gt;" style="ellipse;whiteSpace=wrap;html=1;" vertex="1" parent="1">
          <mxGeometry x="-170" y="840" width="120" height="50" as="geometry" />
        </mxCell>
        <mxCell id="WRKdr_nPjCtuhQN3H7IV-81" value="Text" style="text;html=1;resizable=0;autosize=1;align=center;verticalAlign=middle;points=[];fillColor=none;strokeColor=none;rounded=0;" vertex="1" parent="1">
          <mxGeometry x="-370" y="370" width="40" height="20" as="geometry" />
        </mxCell>
        <mxCell id="WRKdr_nPjCtuhQN3H7IV-82" value="&lt;font face=&quot;Times New Roman&quot; style=&quot;font-size: 72px&quot;&gt;ERD Rekam Medis Rawat Jalan&lt;/font&gt;" style="text;html=1;resizable=0;autosize=1;align=center;verticalAlign=middle;points=[];fillColor=none;strokeColor=none;rounded=0;" vertex="1" parent="1">
          <mxGeometry x="-850" y="-160" width="950" height="40" as="geometry" />
        </mxCell>
      </root>
    </mxGraphModel>
  </diagram>
</mxfile>
